<svg width="70" height="70" viewBox="0 0 70 70" fill="none" xmlns="http://www.w3.org/2000/svg">
<rect width="70" height="70" rx="35" fill="#EAF2FD"/>
<circle cx="34.9993" cy="28.7513" r="8.33333" fill="#11468F"/>
<circle cx="45.416" cy="28.75" r="6.25" fill="#11468F"/>
<circle cx="24.582" cy="28.75" r="6.25" fill="#11468F"/>
<path fill-rule="evenodd" clip-rule="evenodd" d="M46.5987 47.4987H51.4465C52.679 47.4987 53.6241 46.4365 53.3247 45.2409C52.5576 42.1775 50.5151 37.082 45.4152 37.082C43.5691 37.082 42.1235 37.7498 40.9941 38.7472C44.135 40.7852 45.759 44.3535 46.5987 47.4987Z" fill="#11468F"/>
<path fill-rule="evenodd" clip-rule="evenodd" d="M29.0043 38.7469C27.8749 37.7497 26.4295 37.082 24.5835 37.082C19.4837 37.082 17.4411 42.1775 16.674 45.2409C16.3746 46.4365 17.3197 47.4987 18.5522 47.4987H23.3992C24.239 44.3533 25.8631 40.7848 29.0043 38.7469Z" fill="#11468F"/>
<path d="M34.9987 39.168C42.7251 39.168 44.7205 46.045 45.2359 49.5973C45.4011 50.736 44.4826 51.668 43.332 51.668H26.6654C25.5148 51.668 24.5963 50.736 24.7615 49.5973C25.2769 46.045 27.2723 39.168 34.9987 39.168Z" fill="#11468F"/>
</svg>
