<svg width="22" height="22" viewBox="0 0 22 22" fill="none" xmlns="http://www.w3.org/2000/svg">
<rect x="2.84766" y="5.4707" width="16.4211" height="13.6842" rx="1.82456" stroke="#11468F" stroke-width="1.82456"/>
<path d="M2.84766 9.11983C2.84766 7.39961 2.84766 6.53951 3.38206 6.0051C3.91646 5.4707 4.77657 5.4707 6.49678 5.4707H15.6196C17.3398 5.4707 18.1999 5.4707 18.7343 6.0051C19.2687 6.53951 19.2687 7.39961 19.2687 9.11983H2.84766Z" fill="#11468F"/>
<path d="M6.49609 2.73242L6.49609 5.46926" stroke="#11468F" stroke-width="1.82456" stroke-linecap="round"/>
<path d="M15.6201 2.73242L15.6201 5.46926" stroke="#11468F" stroke-width="1.82456" stroke-linecap="round"/>
<rect x="6.49609" y="10.9434" width="3.64912" height="1.82456" rx="0.45614" fill="#11468F"/>
<rect x="6.49609" y="14.5918" width="3.64912" height="1.82456" rx="0.45614" fill="#11468F"/>
<rect x="11.9697" y="10.9434" width="3.64912" height="1.82456" rx="0.45614" fill="#11468F"/>
<rect x="11.9697" y="14.5918" width="3.64912" height="1.82456" rx="0.45614" fill="#11468F"/>
</svg>
