<svg width="36" height="35" viewBox="0 0 36 35" fill="none" xmlns="http://www.w3.org/2000/svg">
<rect x="0.5" width="35" height="35" rx="3" fill="#E7EDF4"/>
<path d="M24.3067 17.084V21.2854C24.3067 22.8698 24.3067 23.662 23.8145 24.1543C23.3223 24.6465 22.5301 24.6465 20.9456 24.6465H12.963C11.8028 24.6465 10.8623 23.706 10.8623 22.5458V22.5458C10.8623 21.3856 11.8028 20.4451 12.963 20.4451H20.9456C22.5301 20.4451 23.3223 20.4451 23.8145 19.9529C24.3067 19.4606 24.3067 18.6684 24.3067 17.084V12.8826C24.3067 11.2982 24.3067 10.5059 23.8145 10.0137C23.3223 9.52148 22.5301 9.52148 20.9456 9.52148H14.2234C12.639 9.52148 11.8468 9.52148 11.3545 10.0137C10.8623 10.5059 10.8623 11.2982 10.8623 12.8826V22.5458" stroke="#11468F" stroke-width="1.68056"/>
<path d="M15.0625 13.7227L20.1042 13.7227" stroke="#11468F" stroke-width="1.68056" stroke-linecap="round"/>
</svg>
