<svg width="36" height="35" viewBox="0 0 36 35" fill="none" xmlns="http://www.w3.org/2000/svg">
<rect x="0.5" width="35" height="35" rx="3" fill="#E7EDF4"/>
<path d="M18.5666 9.52148H15.0613C13.4769 9.52148 12.6846 9.52148 12.1924 10.0137C11.7002 10.5059 11.7002 11.2982 11.7002 12.8826V21.2854C11.7002 22.8698 11.7002 23.662 12.1924 24.1543C12.6846 24.6465 13.4769 24.6465 15.0613 24.6465H20.103C21.6874 24.6465 22.4796 24.6465 22.9719 24.1543C23.4641 23.662 23.4641 22.8698 23.4641 21.2854V14.419C23.4641 14.0755 23.4641 13.9038 23.4001 13.7494C23.3362 13.5949 23.2147 13.4735 22.9719 13.2307L19.7549 10.0137C19.5121 9.77084 19.3906 9.64941 19.2362 9.58545C19.0818 9.52148 18.9101 9.52148 18.5666 9.52148Z" stroke="#11468F" stroke-width="1.68056"/>
<path d="M15.0625 17.9238L20.1042 17.9238" stroke="#11468F" stroke-width="1.68056" stroke-linecap="round"/>
<path d="M15.0625 21.2852L18.4236 21.2852" stroke="#11468F" stroke-width="1.68056" stroke-linecap="round"/>
<path d="M18.4248 9.52148V12.8826C18.4248 13.6748 18.4248 14.0709 18.6709 14.317C18.917 14.5632 19.3131 14.5632 20.1054 14.5632H23.4665" stroke="#11468F" stroke-width="1.68056"/>
</svg>
