<svg width="50" height="50" viewBox="0 0 50 50" fill="none" xmlns="http://www.w3.org/2000/svg">
<rect width="50" height="50" rx="25" fill="#DBE3EE"/>
<path d="M26.3655 14.5H21.4987C19.2988 14.5 18.1989 14.5 17.5154 15.1834C16.832 15.8668 16.832 16.9668 16.832 19.1667V30.8333C16.832 33.0332 16.832 34.1332 17.5154 34.8166C18.1989 35.5 19.2988 35.5 21.4987 35.5H28.4987C30.6986 35.5 31.7985 35.5 32.4819 34.8166C33.1654 34.1332 33.1654 33.0332 33.1654 30.8333V21.2998C33.1654 20.823 33.1654 20.5845 33.0766 20.3701C32.9877 20.1557 32.8191 19.9871 32.4819 19.6499L28.0154 15.1834C27.6782 14.8462 27.5096 14.6776 27.2952 14.5888C27.0808 14.5 26.8424 14.5 26.3655 14.5Z" stroke="#11468F" stroke-width="2.33333"/>
<path d="M21.5 26.166L28.5 26.166" stroke="#11468F" stroke-width="2.33333" stroke-linecap="round"/>
<path d="M21.5 30.834L26.1667 30.834" stroke="#11468F" stroke-width="2.33333" stroke-linecap="round"/>
<path d="M26.168 14.5V19.1667C26.168 20.2666 26.168 20.8166 26.5097 21.1583C26.8514 21.5 27.4014 21.5 28.5013 21.5H33.168" stroke="#11468F" stroke-width="2.33333"/>
</svg>
