<svg width="24" height="24" viewBox="0 0 24 24" fill="none" xmlns="http://www.w3.org/2000/svg">
<path d="M11.999 5L11.2919 4.29289L11.999 3.58579L12.7061 4.29289L11.999 5ZM12.999 14C12.999 14.5523 12.5513 15 11.999 15C11.4467 15 10.999 14.5523 10.999 14L12.999 14ZM6.29192 9.29289L11.2919 4.29289L12.7061 5.70711L7.70613 10.7071L6.29192 9.29289ZM12.7061 4.29289L17.7061 9.29289L16.2919 10.7071L11.2919 5.70711L12.7061 4.29289ZM12.999 5L12.999 14L10.999 14L10.999 5L12.999 5Z" fill="#11468F"/>
<path d="M5.00098 16L5.00098 17C5.00098 18.1046 5.89641 19 7.00098 19L17.001 19C18.1055 19 19.001 18.1046 19.001 17V16" stroke="#11468F" stroke-width="2"/>
</svg>
