<svg width="25" height="25" viewBox="0 0 25 25" fill="none" xmlns="http://www.w3.org/2000/svg">
<rect x="0.151515" y="0.151515" width="24.697" height="24.697" rx="12.3485" fill="#EAF2FD"/>
<rect x="0.151515" y="0.151515" width="24.697" height="24.697" rx="12.3485" stroke="#2F80ED" stroke-width="0.30303"/>
<path d="M11.0811 10.5252C11.0811 10.0014 11.0811 9.7395 11.2438 9.57678C11.4065 9.41406 11.6684 9.41406 12.1922 9.41406H13.1721C13.5062 9.41406 13.6733 9.41406 13.8076 9.49703C13.9418 9.58001 14.0165 9.72943 14.1659 10.0283L14.6922 11.0807H16.6366C17.1604 11.0807 17.4223 11.0807 17.585 11.2434C17.7477 11.4062 17.7477 11.6681 17.7477 12.1918V13.8585C17.7477 14.3823 17.7477 14.6442 17.585 14.8069C17.4223 14.9696 17.1604 14.9696 16.6366 14.9696H12.1922C11.6684 14.9696 11.4065 14.9696 11.2438 14.8069C11.0811 14.6442 11.0811 14.3823 11.0811 13.8585V10.5252Z" stroke="#2F80ED" stroke-width="1.11111" stroke-linejoin="round"/>
<path d="M16.0816 14.9709V16.3043C16.0816 16.6154 16.0816 16.771 16.021 16.8898C15.9678 16.9943 15.8828 17.0793 15.7783 17.1326C15.6594 17.1931 15.5038 17.1931 15.1927 17.1931H9.74826C9.43712 17.1931 9.28155 17.1931 9.16271 17.1326C9.05818 17.0793 8.97319 16.9943 8.91993 16.8898C8.85938 16.771 8.85938 16.6154 8.85938 16.3043V11.9709C8.85938 11.6598 8.85938 11.5042 8.91993 11.3854C8.97319 11.2808 9.05818 11.1958 9.16271 11.1426C9.28155 11.082 9.43712 11.082 9.74826 11.082H11.0816" stroke="#2F80ED" stroke-width="1.11111" stroke-linejoin="round"/>
</svg>
