<svg width="26" height="25" viewBox="0 0 26 25" fill="none" xmlns="http://www.w3.org/2000/svg">
<rect x="0.5" width="25" height="25" rx="3" fill="#E7EDF4"/>
<path d="M13.3628 6.08398H10.5817C9.32463 6.08398 8.69609 6.08398 8.30556 6.47451C7.91504 6.86503 7.91504 7.49357 7.91504 8.75065V15.4173C7.91504 16.6744 7.91504 17.3029 8.30556 17.6935C8.69609 18.084 9.32463 18.084 10.5817 18.084H14.5817C15.8388 18.084 16.4673 18.084 16.8578 17.6935C17.2484 17.3029 17.2484 16.6744 17.2484 15.4173V9.9696C17.2484 9.6971 17.2484 9.56085 17.1976 9.43834C17.1469 9.31582 17.0505 9.21948 16.8578 9.02679L14.3056 6.47451C14.1129 6.28182 14.0165 6.18548 13.894 6.13473C13.7715 6.08398 13.6353 6.08398 13.3628 6.08398Z" stroke="#11468F" stroke-width="1.33333"/>
<path d="M10.583 12.75L14.583 12.75" stroke="#11468F" stroke-width="1.33333" stroke-linecap="round"/>
<path d="M10.583 15.418L13.2497 15.418" stroke="#11468F" stroke-width="1.33333" stroke-linecap="round"/>
<path d="M13.251 6.08398V8.75065C13.251 9.37919 13.251 9.69346 13.4462 9.88872C13.6415 10.084 13.9558 10.084 14.5843 10.084H17.251" stroke="#11468F" stroke-width="1.33333"/>
</svg>
