<svg width="25" height="25" viewBox="0 0 25 25" fill="none" xmlns="http://www.w3.org/2000/svg">
<rect width="25" height="25" rx="3" fill="#E7EDF4"/>
<path d="M13.5063 6.32544H12.8396V6.38489L12.8501 6.4434L13.5063 6.32544ZM13.5063 6.32543H14.1729V6.29218L14.1696 6.2591L13.5063 6.32543ZM13.5063 6.32546L14.1696 6.25912L14.167 6.23317L14.1624 6.2075L13.5063 6.32546ZM13.7026 7.29563L14.2329 6.89158V6.89158L13.7026 7.29563ZM14.3221 7.55225L14.4114 8.21291H14.4114L14.3221 7.55225ZM15.1469 7.00513L15.569 7.52111L15.5835 7.50924L15.5974 7.49657L15.1469 7.00513ZM15.1469 7.00513L14.7247 6.48915L14.7102 6.50102L14.6964 6.51369L15.1469 7.00513ZM15.6047 6.69077L15.4016 6.0558L15.4016 6.0558L15.6047 6.69077ZM16.0731 6.71414L15.8078 7.32575L16.0731 6.71414ZM16.4974 7.07249L16.0259 7.5439V7.5439L16.4974 7.07249ZM17.0933 7.66848L16.6219 8.13988L16.6219 8.13988L17.0933 7.66848ZM17.4518 8.09295L16.8402 8.35813L16.8402 8.35814L17.4518 8.09295ZM17.4752 8.56114L16.8402 8.35813V8.35813L17.4752 8.56114ZM17.1607 9.01918L16.6447 8.59702L16.6447 8.59702L17.1607 9.01918ZM16.6134 9.84433L15.9527 9.75525V9.75525L16.6134 9.84433ZM16.8699 10.4636L16.4657 10.9937H16.4657L16.8699 10.4636ZM17.8406 10.6601L17.7743 11.3234H17.7743L17.8406 10.6601ZM18.3873 10.7617L18.0817 11.3542L18.0817 11.3542L18.3873 10.7617ZM18.7017 11.109L18.0817 11.3542V11.3542L18.7017 11.109ZM18.7017 13.0593L18.0817 12.8142V12.8142L18.7017 13.0593ZM18.3873 13.4067L18.0817 12.8142L18.0817 12.8142L18.3873 13.4067ZM17.8408 13.5083L17.9071 14.1716H17.9071L17.8408 13.5083ZM16.8698 13.7049L16.4655 13.1748L16.4655 13.1748L16.8698 13.7049ZM16.6135 14.3238L17.2742 14.2349V14.2349L16.6135 14.3238ZM17.1611 15.1495L16.6451 15.5716V15.5716L17.1611 15.1495ZM17.4758 15.6079L16.8407 15.8107L16.8407 15.8107L17.4758 15.6079ZM17.4524 16.0757L18.0642 16.3408L18.0642 16.3408L17.4524 16.0757ZM16.0735 17.4548L15.8083 16.8431L15.8083 16.8431L16.0735 17.4548ZM15.6054 17.4781L15.4024 18.1131H15.4024L15.6054 17.4781ZM15.1473 17.1636L15.5694 16.6476L15.5442 16.627L15.5171 16.6089L15.1473 17.1636ZM15.1472 17.1636L14.7251 17.6796L14.7503 17.7002L14.7774 17.7183L15.1472 17.1636ZM14.322 16.6162L14.411 15.9555L14.411 15.9555L14.322 16.6162ZM13.7028 16.8727L13.1727 16.4684L13.1727 16.4684L13.7028 16.8727ZM13.5063 17.8435L14.1639 17.9531L14.1675 17.9316L14.1696 17.9099L13.5063 17.8435ZM13.5063 17.8435L12.8487 17.7339L12.8451 17.7555L12.8429 17.7772L13.5063 17.8435ZM13.4047 18.3903L12.8122 18.0846L12.8122 18.0846L13.4047 18.3903ZM13.0573 18.7046L12.8122 18.0846H12.8122L13.0573 18.7046ZM11.1069 18.7045L10.8616 19.3244L10.8616 19.3244L11.1069 18.7045ZM10.7598 18.3904L10.1673 18.6962L10.7598 18.3904ZM10.6581 17.8435L9.9947 17.9098V17.9098L10.6581 17.8435ZM10.4612 16.8718L9.93136 17.2763L9.93136 17.2763L10.4612 16.8718ZM9.84275 16.6156L9.75414 15.9548L9.75414 15.9548L9.84275 16.6156ZM9.01639 17.1636L8.59423 16.6476H8.59423L9.01639 17.1636ZM8.55753 17.4785L8.35491 16.8434L8.35491 16.8434L8.55753 17.4785ZM8.09009 17.4552L7.82527 18.067L7.82528 18.067L8.09009 17.4552ZM7.6649 17.0962L7.1935 17.5676L7.1935 17.5676L7.6649 17.0962ZM7.06962 16.5009L7.54102 16.0295L7.54102 16.0295L7.06962 16.5009ZM6.71075 16.0759L6.09898 16.3409L6.09898 16.3409L6.71075 16.0759ZM6.68743 15.6083L7.32252 15.811H7.32252L6.68743 15.6083ZM7.0023 15.1496L7.51827 15.5718L7.52718 15.5609L7.53563 15.5496L7.0023 15.1496ZM7.0023 15.1496L6.48633 14.7275L6.47741 14.7384L6.46897 14.7496L7.0023 15.1496ZM7.55003 14.3238L8.21075 14.4127L8.21075 14.4127L7.55003 14.3238ZM7.29367 13.7049L7.69803 13.1748L7.69802 13.1748L7.29367 13.7049ZM6.32266 13.5083L6.25633 14.1716H6.25633L6.32266 13.5083ZM5.77611 13.4067L5.47052 13.9992H5.47052L5.77611 13.4067ZM5.46174 13.0593L4.84177 13.3044L4.84177 13.3044L5.46174 13.0593ZM5.46175 11.109L4.84179 10.8639L4.84179 10.8639L5.46175 11.109ZM5.77609 10.7617L6.08171 11.3542L6.08171 11.3542L5.77609 10.7617ZM6.32274 10.6601V9.99339H6.28949L6.2564 9.9967L6.32274 10.6601ZM6.32275 10.6601V11.3267H6.356L6.38908 11.3234L6.32275 10.6601ZM7.29371 10.4635L7.69802 10.9936L7.69802 10.9936L7.29371 10.4635ZM7.55011 9.84447L8.21082 9.75554L8.21082 9.75553L7.55011 9.84447ZM7.00261 9.01897L6.48664 9.44113L7.00261 9.01897ZM6.68802 8.56074L6.05298 8.76365L6.05298 8.76365L6.68802 8.56074ZM6.71136 8.09274L7.32305 8.35783H7.32305L6.71136 8.09274ZM7.06999 7.66809L7.54139 8.13949L7.06999 7.66809ZM7.66557 7.07251L8.13697 7.54391L8.16308 7.5178L8.18615 7.48897L7.66557 7.07251ZM7.66557 7.0725L7.19417 6.6011L7.16806 6.62721L7.14499 6.65604L7.66557 7.0725ZM8.09048 6.71369L8.35544 7.32544L8.35544 7.32544L8.09048 6.71369ZM8.55821 6.69036L8.35544 7.32544L8.35544 7.32544L8.55821 6.69036ZM9.0168 7.00519L9.48821 6.53378L9.4647 6.51027L9.43896 6.48921L9.0168 7.00519ZM9.01681 7.00519L8.5454 7.47659L8.56891 7.5001L8.59465 7.52116L9.01681 7.00519ZM9.84252 7.55286L9.75361 8.21357L9.75361 8.21357L9.84252 7.55286ZM10.4615 7.29647L10.9916 7.70079L10.4615 7.29647ZM10.6581 6.32557L11.3214 6.3919L11.3248 6.35882V6.32557H10.6581ZM10.6581 6.32556L9.99473 6.25923L9.99142 6.29231V6.32556H10.6581ZM10.7597 5.77906L10.1671 5.47349L10.1671 5.47349L10.7597 5.77906ZM11.1071 5.46466L10.862 4.84468V4.84468L11.1071 5.46466ZM13.0571 5.4646L13.3021 4.84457L13.3021 4.84457L13.0571 5.4646ZM13.4048 5.7792L13.9974 5.47376L13.9973 5.47376L13.4048 5.7792ZM14.1729 6.32544V6.32543H12.8396V6.32544H14.1729ZM14.1624 6.2075L14.1624 6.20748L12.8501 6.4434L12.8501 6.44342L14.1624 6.2075ZM14.2329 6.89158C14.275 6.94684 14.2616 6.97126 14.2382 6.84131C14.216 6.71773 14.1981 6.54368 14.1696 6.25912L12.8429 6.39179C12.8691 6.654 12.8922 6.89002 12.9259 7.07734C12.9585 7.25827 13.0159 7.4944 13.1723 7.69969L14.2329 6.89158ZM14.2329 6.89158L14.2329 6.89158L13.1723 7.69969C13.463 8.08114 13.9361 8.27711 14.4114 8.21291L14.2329 6.89158ZM14.7247 6.48916C14.5034 6.67023 14.3677 6.78062 14.2646 6.85227C14.1562 6.92761 14.164 6.90088 14.2329 6.89158L14.4114 8.21291C14.6671 8.17836 14.8747 8.05203 15.0256 7.9471C15.1819 7.83848 15.3651 7.68795 15.569 7.52111L14.7247 6.48916ZM14.6964 6.51369L14.6964 6.5137L15.5974 7.49657L15.5974 7.49656L14.6964 6.51369ZM15.4016 6.0558C15.249 6.10462 15.1268 6.18007 15.0278 6.25059C14.9343 6.31726 14.8302 6.40286 14.7247 6.48915L15.569 7.5211C15.6882 7.4236 15.7526 7.37134 15.8016 7.33645C15.8451 7.30542 15.8396 7.31558 15.8078 7.32575L15.4016 6.0558ZM16.3384 6.10253C16.0421 5.974 15.7092 5.9574 15.4016 6.0558L15.8078 7.32575V7.32575L16.3384 6.10253ZM16.9688 6.60109C16.8724 6.50472 16.7774 6.40919 16.6909 6.33354C16.5994 6.25351 16.4854 6.16629 16.3384 6.10253L15.8078 7.32575C15.7772 7.31247 15.7727 7.3018 15.8129 7.33702C15.8582 7.37661 15.9171 7.43502 16.0259 7.5439L16.9688 6.60109ZM17.5647 7.19707L16.9688 6.60109L16.0259 7.5439L16.6219 8.13988L17.5647 7.19707ZM18.0635 7.82776C17.9997 7.68069 17.9125 7.56659 17.8324 7.47508C17.7567 7.38857 17.6612 7.29348 17.5647 7.19707L16.6219 8.13988C16.7309 8.24881 16.7893 8.30773 16.8289 8.353C16.8641 8.39328 16.8535 8.38875 16.8402 8.35813L18.0635 7.82776ZM18.1102 8.76415C18.2085 8.45666 18.1919 8.12394 18.0635 7.82776L16.8402 8.35814L16.8402 8.35813L18.1102 8.76415ZM17.6767 9.44134C17.763 9.33581 17.8487 9.23169 17.9154 9.13807C17.9859 9.03905 18.0614 8.91684 18.1102 8.76415L16.8402 8.35813C16.8503 8.32635 16.8605 8.32078 16.8295 8.36436C16.7946 8.41335 16.7423 8.47779 16.6447 8.59702L17.6767 9.44134ZM17.2741 9.93341C17.2648 10.0023 17.238 10.0101 17.3134 9.90163C17.3851 9.79851 17.4955 9.66274 17.6767 9.44133L16.6447 8.59702C16.4778 8.80103 16.3272 8.98433 16.2186 9.14067C16.1136 9.29169 15.9872 9.49936 15.9527 9.75525L17.2741 9.93341ZM17.2741 9.93341L17.2741 9.93341L15.9527 9.75525C15.8887 10.2303 16.0845 10.7031 16.4657 10.9937L17.2741 9.93341ZM17.907 9.9967C17.6222 9.96822 17.4481 9.95031 17.3244 9.92807C17.1944 9.90467 17.2188 9.89126 17.2741 9.93341L16.4657 10.9937C16.6711 11.1503 16.9073 11.2078 17.0883 11.2403C17.2758 11.2741 17.5119 11.2972 17.7743 11.3234L17.907 9.9967ZM18.6929 10.1692C18.5503 10.0956 18.4105 10.0625 18.2905 10.0424C18.177 10.0234 18.0427 10.0103 17.907 9.9967L17.7743 11.3234C17.9277 11.3388 18.0103 11.3474 18.0697 11.3573C18.1225 11.3662 18.1114 11.3695 18.0817 11.3542L18.6929 10.1692ZM19.3216 10.8639C19.203 10.5639 18.9796 10.317 18.6929 10.1692L18.0817 11.3542L18.0817 11.3542L19.3216 10.8639ZM19.415 11.663C19.415 11.5266 19.4154 11.3917 19.4077 11.2769C19.3996 11.1555 19.3806 11.0131 19.3216 10.8639L18.0817 11.3542C18.0694 11.3231 18.0738 11.3123 18.0774 11.3658C18.0814 11.4258 18.0817 11.5088 18.0817 11.663H19.415ZM19.415 12.5054V11.663H18.0817V12.5054H19.415ZM19.3217 13.3044C19.3806 13.1552 19.3996 13.0128 19.4077 12.8914C19.4154 12.7767 19.415 12.6418 19.415 12.5054H18.0817C18.0817 12.6595 18.0814 12.7425 18.0774 12.8026C18.0738 12.856 18.0694 12.8452 18.0817 12.8142L19.3217 13.3044ZM18.6929 13.9992C18.9796 13.8513 19.203 13.6044 19.3217 13.3044L18.0817 12.8142L18.0817 12.8142L18.6929 13.9992ZM17.9071 14.1716C18.0428 14.158 18.1771 14.145 18.2905 14.1259C18.4105 14.1058 18.5503 14.0727 18.6929 13.9992L18.0817 12.8142C18.1114 12.7989 18.1225 12.8021 18.0697 12.811C18.0104 12.821 17.9278 12.8296 17.7744 12.8449L17.9071 14.1716ZM17.2742 14.2349C17.2189 14.2771 17.1944 14.2637 17.3245 14.2403C17.4481 14.218 17.6223 14.2001 17.9071 14.1716L17.7744 12.8449C17.512 12.8711 17.2758 12.8943 17.0883 12.928C16.9072 12.9606 16.6709 13.0181 16.4655 13.1748L17.2742 14.2349ZM17.2742 14.2349L17.2742 14.2349L16.4655 13.1748C16.0846 13.4654 15.8889 13.9379 15.9527 14.4127L17.2742 14.2349ZM17.677 14.7273C17.4958 14.5058 17.3853 14.3699 17.3135 14.2667C17.2381 14.1582 17.2649 14.166 17.2742 14.2349L15.9527 14.4127C15.9872 14.6688 16.1136 14.8765 16.2187 15.0276C16.3274 15.1841 16.4781 15.3675 16.6451 15.5716L17.677 14.7273ZM18.1108 15.4051C18.062 15.2522 17.9865 15.1299 17.9159 15.0308C17.8492 14.9371 17.7635 14.8329 17.677 14.7273L16.6451 15.5716C16.7427 15.691 16.7951 15.7555 16.83 15.8045C16.8611 15.8481 16.8509 15.8425 16.8407 15.8107L18.1108 15.4051ZM18.0642 16.3408C18.1924 16.0448 18.209 15.7123 18.1108 15.4051L16.8407 15.8107L16.8407 15.8107L18.0642 16.3408ZM17.5651 16.9719C17.6616 16.8755 17.7572 16.7803 17.833 16.6937C17.9131 16.6021 18.0004 16.488 18.0642 16.3408L16.8407 15.8107C16.854 15.7801 16.8647 15.7756 16.8294 15.8159C16.7898 15.8612 16.7313 15.9201 16.6223 16.0291L17.5651 16.9719ZM16.9694 17.5676L17.5651 16.9719L16.6223 16.0291L16.0266 16.6248L16.9694 17.5676ZM16.3386 18.0665C16.4857 18.0027 16.5998 17.9154 16.6914 17.8353C16.7779 17.7596 16.873 17.6641 16.9694 17.5676L16.0266 16.6248C15.9177 16.7338 15.8587 16.7922 15.8135 16.8318C15.7732 16.8671 15.7777 16.8564 15.8083 16.8431L16.3386 18.0665ZM15.4024 18.1131C15.7098 18.2114 16.0425 18.1948 16.3386 18.0665L15.8083 16.8431L15.8083 16.8431L15.4024 18.1131ZM14.7251 17.6796C14.8306 17.7659 14.9348 17.8516 15.0284 17.9183C15.1274 17.9889 15.2497 18.0643 15.4024 18.1131L15.8083 16.8431C15.8401 16.8533 15.8457 16.8634 15.8021 16.8324C15.7531 16.7975 15.6887 16.7452 15.5694 16.6476L14.7251 17.6796ZM14.7774 17.7183L14.7775 17.7183L15.5171 16.6089L15.517 16.6089L14.7774 17.7183ZM14.2329 17.2769C14.1641 17.2676 14.1563 17.2409 14.2647 17.3162C14.3679 17.3879 14.5036 17.4984 14.7251 17.6796L15.5694 16.6476C15.3654 16.4807 15.182 16.3301 15.0257 16.2214C14.8746 16.1164 14.6669 15.99 14.411 15.9555L14.2329 17.2769ZM14.2329 17.2769L14.2329 17.2769L14.411 15.9555C13.936 15.8915 13.4633 16.0873 13.1727 16.4684L14.2329 17.2769ZM14.1696 17.9099C14.1981 17.6251 14.216 17.4509 14.2383 17.3272C14.2617 17.1972 14.2751 17.2216 14.2329 17.2769L13.1727 16.4684C13.0161 16.6738 12.9586 16.9101 12.926 17.0911C12.8923 17.2786 12.8692 17.5148 12.8429 17.7772L14.1696 17.9099ZM14.1639 17.9531L14.1639 17.9531L12.8487 17.7339L12.8487 17.7339L14.1639 17.9531ZM13.9972 18.6959C14.0707 18.5533 14.1038 18.4134 14.1239 18.2934C14.143 18.18 14.1561 18.0457 14.1696 17.9099L12.8429 17.7772C12.8276 17.9306 12.819 18.0133 12.809 18.0726C12.8001 18.1255 12.7969 18.1143 12.8122 18.0846L13.9972 18.6959ZM13.3025 19.3245C13.6025 19.2059 13.8493 18.9826 13.9972 18.6959L12.8122 18.0846H12.8122L13.3025 19.3245ZM12.5033 19.418C12.6398 19.418 12.7747 19.4183 12.8894 19.4106C13.0108 19.4025 13.1533 19.3835 13.3025 19.3245L12.8122 18.0846C12.8432 18.0724 12.854 18.0767 12.8006 18.0803C12.7405 18.0843 12.6575 18.0846 12.5033 18.0846V19.418ZM11.6612 19.418H12.5033V18.0846H11.6612V19.418ZM10.8616 19.3244C11.0108 19.3835 11.1534 19.4025 11.2749 19.4106C11.3897 19.4183 11.5247 19.418 11.6612 19.418V18.0846C11.507 18.0846 11.4239 18.0843 11.3638 18.0803C11.3103 18.0767 11.3211 18.0723 11.3522 18.0846L10.8616 19.3244ZM10.1673 18.6962C10.3152 18.9826 10.5618 19.2058 10.8616 19.3244L11.3522 18.0846L11.3522 18.0846L10.1673 18.6962ZM9.9947 17.9098C10.0083 18.0456 10.0214 18.18 10.0404 18.2935C10.0606 18.4136 10.0937 18.5535 10.1673 18.6962L11.3522 18.0846C11.3675 18.1143 11.3642 18.1255 11.3554 18.0726C11.3454 18.0132 11.3368 17.9306 11.3214 17.7771L9.9947 17.9098ZM9.93136 17.2763C9.88913 17.221 9.90257 17.1965 9.92599 17.3267C9.94827 17.4504 9.9662 17.6248 9.9947 17.9098L11.3214 17.7771C11.2952 17.5145 11.272 17.2781 11.2382 17.0905C11.2056 16.9092 11.148 16.6727 10.9911 16.4672L9.93136 17.2763ZM9.93136 17.2763L9.93136 17.2763L10.9911 16.4672C10.7006 16.0868 10.2285 15.8912 9.75414 15.9548L9.93136 17.2763ZM9.43854 17.6796C9.66028 17.4981 9.79625 17.3875 9.89954 17.3157C10.0081 17.2403 10.0003 17.2671 9.93136 17.2763L9.75414 15.9548C9.49787 15.9892 9.2899 16.1157 9.13866 16.2208C8.9821 16.3296 8.79854 16.4804 8.59423 16.6476L9.43854 17.6796ZM8.76015 18.1137C8.91313 18.0649 9.03556 17.9893 9.13475 17.9186C9.22853 17.8518 9.33283 17.766 9.43854 17.6796L8.59423 16.6476C8.47479 16.7453 8.41023 16.7977 8.36115 16.8327C8.31748 16.8638 8.32306 16.8536 8.35491 16.8434L8.76015 18.1137ZM7.82528 18.067C8.12103 18.1951 8.45313 18.2116 8.76015 18.1137L8.35491 16.8434L8.3549 16.8434L7.82528 18.067ZM7.1935 17.5676C7.29006 17.6642 7.3853 17.7599 7.47196 17.8357C7.56363 17.9159 7.67792 18.0033 7.82527 18.067L8.35491 16.8434C8.38558 16.8567 8.39011 16.8674 8.34978 16.8321C8.30443 16.7924 8.24541 16.7339 8.1363 16.6248L7.1935 17.5676ZM6.59821 16.9723L7.1935 17.5676L8.13631 16.6248L7.54102 16.0295L6.59821 16.9723ZM6.09898 16.3409C6.16276 16.4881 6.2501 16.6024 6.33024 16.694C6.40601 16.7806 6.50169 16.8758 6.59821 16.9723L7.54102 16.0295C7.43197 15.9205 7.37347 15.8615 7.33382 15.8162C7.29855 15.7758 7.30924 15.7804 7.32252 15.811L6.09898 16.3409ZM6.05233 15.4056C5.95428 15.7127 5.97086 16.045 6.09898 16.3409L7.32252 15.811H7.32252L6.05233 15.4056ZM6.48632 14.7275C6.39986 14.8331 6.31411 14.9374 6.24733 15.0311C6.1767 15.1303 6.10114 15.2527 6.05233 15.4056L7.32252 15.811C7.31236 15.8429 7.30216 15.8484 7.33326 15.8048C7.36822 15.7557 7.42058 15.6912 7.51827 15.5718L6.48632 14.7275ZM6.46897 14.7496L6.46896 14.7496L7.53563 15.5496L7.53563 15.5496L6.46897 14.7496ZM6.88932 14.2349C6.89859 14.166 6.92538 14.1582 6.84993 14.2667C6.77819 14.37 6.66763 14.5059 6.48633 14.7275L7.51827 15.5718C7.68534 15.3676 7.83607 15.1841 7.9448 15.0277C8.04983 14.8766 8.1763 14.6687 8.21075 14.4127L6.88932 14.2349ZM6.88932 14.2349L6.88932 14.2349L8.21075 14.4127C8.27461 13.9379 8.07888 13.4654 7.69803 13.1748L6.88932 14.2349ZM6.25633 14.1716C6.54114 14.2001 6.71534 14.218 6.83902 14.2403C6.96906 14.2637 6.9446 14.2771 6.88932 14.2349L7.69802 13.1748C7.49261 13.0181 7.25628 12.9606 7.07516 12.928C6.88768 12.8943 6.65144 12.8711 6.389 12.8449L6.25633 14.1716ZM5.47052 13.9992C5.61307 14.0727 5.75293 14.1058 5.87291 14.1259C5.98633 14.145 6.12058 14.158 6.25633 14.1716L6.389 12.8449C6.23563 12.8296 6.15305 12.821 6.09369 12.811C6.04089 12.8021 6.05203 12.7989 6.08171 12.8142L5.47052 13.9992ZM4.84177 13.3044C4.9604 13.6044 5.18378 13.8513 5.47052 13.9992L6.08171 12.8142L6.08171 12.8142L4.84177 13.3044ZM4.74837 12.5053C4.74837 12.6418 4.74803 12.7767 4.75569 12.8914C4.7638 13.0128 4.7828 13.1553 4.84177 13.3044L6.08171 12.8142C6.09398 12.8452 6.08963 12.856 6.08606 12.8026C6.08205 12.7425 6.08171 12.6595 6.08171 12.5053H4.74837ZM4.74837 11.663V12.5053H6.08171V11.663H4.74837ZM4.84179 10.8639C4.7828 11.013 4.7638 11.1555 4.75569 11.2769C4.74803 11.3917 4.74837 11.5266 4.74837 11.663H6.08171C6.08171 11.5089 6.08205 11.4258 6.08606 11.3658C6.08963 11.3123 6.09398 11.3231 6.08171 11.3542L4.84179 10.8639ZM5.47048 10.1692C5.18377 10.3171 4.96041 10.5639 4.84179 10.8639L6.08171 11.3542L6.08171 11.3542L5.47048 10.1692ZM6.2564 9.9967C6.12063 10.0103 5.98635 10.0234 5.87291 10.0424C5.75292 10.0626 5.61304 10.0956 5.47047 10.1692L6.08171 11.3542C6.05203 11.3695 6.04088 11.3662 6.0937 11.3573C6.15307 11.3474 6.23568 11.3388 6.38908 11.3234L6.2564 9.9967ZM6.32275 9.99339H6.32274V11.3267H6.32275V9.99339ZM6.88941 9.9334C6.94469 9.89123 6.96914 9.90465 6.83909 9.92805C6.71541 9.9503 6.54121 9.96822 6.25641 9.9967L6.38908 11.3234C6.65151 11.2972 6.88774 11.274 7.07521 11.2403C7.2563 11.2077 7.49262 11.1502 7.69802 10.9936L6.88941 9.9334ZM6.88941 9.9334L6.88941 9.9334L7.69802 10.9936C8.07897 10.703 8.27474 10.2304 8.21082 9.75554L6.88941 9.9334ZM6.48664 9.44113C6.66786 9.66263 6.77836 9.79845 6.85006 9.90162C6.92545 10.0101 6.89868 10.0023 6.88941 9.9334L8.21082 9.75553C8.17636 9.49953 8.04994 9.29177 7.94494 9.14068C7.83624 8.98428 7.68557 8.80091 7.51858 8.59681L6.48664 9.44113ZM6.05298 8.76365C6.10179 8.91641 6.17729 9.03868 6.24787 9.13774C6.31459 9.2314 6.40026 9.33556 6.48664 9.44113L7.51858 8.59681C7.42099 8.47754 7.36869 8.41307 7.33377 8.36406C7.30271 8.32046 7.31289 8.32603 7.32305 8.35783L6.05298 8.76365ZM6.09966 7.82765C5.97135 8.12372 5.95477 8.45628 6.05298 8.76365L7.32305 8.35783L7.32305 8.35783L6.09966 7.82765ZM6.59858 7.19668C6.50213 7.29313 6.40652 7.38826 6.33081 7.4748C6.25072 7.56636 6.16343 7.6805 6.09966 7.82765L7.32305 8.35783C7.30978 8.38846 7.29909 8.39299 7.33434 8.3527C7.37396 8.30741 7.43242 8.24846 7.54139 8.13949L6.59858 7.19668ZM7.19416 6.6011L6.59858 7.19668L7.54139 8.13949L8.13697 7.54391L7.19416 6.6011ZM7.14499 6.65604L7.14499 6.65604L8.18615 7.48897L8.18615 7.48897L7.14499 6.65604ZM7.82552 6.10194C7.67828 6.16571 7.56406 6.25304 7.47245 6.33317C7.38585 6.40893 7.29067 6.50459 7.19417 6.6011L8.13697 7.54391C8.24601 7.43487 8.30499 7.37638 8.35031 7.33674C8.39062 7.30148 8.38609 7.31217 8.35544 7.32544L7.82552 6.10194ZM8.76098 6.05528C8.45378 5.9572 8.12144 5.97377 7.82552 6.10194L8.35544 7.32544L8.35544 7.32544L8.76098 6.05528ZM9.43896 6.48921C9.3333 6.40276 9.22906 6.31703 9.13534 6.25026C9.03621 6.17964 8.91386 6.10409 8.76098 6.05528L8.35544 7.32544C8.32361 7.31528 8.31803 7.30509 8.36168 7.33618C8.41074 7.37114 8.47527 7.42349 8.59465 7.52116L9.43896 6.48921ZM9.48821 6.53378L9.48821 6.53378L8.5454 7.47659L8.5454 7.47659L9.48821 6.53378ZM9.93144 6.89215C10.0004 6.90142 10.0082 6.92821 9.89962 6.85277C9.79641 6.78104 9.66053 6.6705 9.43896 6.48921L8.59465 7.52116C8.79881 7.6882 8.98223 7.83891 9.13867 7.94763C9.28977 8.05265 9.49756 8.17911 9.75361 8.21357L9.93144 6.89215ZM9.93144 6.89215V6.89215L9.75361 8.21357C10.2284 8.27746 10.701 8.08171 10.9916 7.70079L9.93144 6.89215ZM9.99473 6.25923C9.96625 6.54401 9.94834 6.71819 9.92609 6.84185C9.90269 6.97188 9.88927 6.94743 9.93144 6.89215L10.9916 7.70079C11.1482 7.49539 11.2058 7.25908 11.2383 7.07799C11.2721 6.89052 11.2952 6.65431 11.3214 6.3919L9.99473 6.25923ZM9.99142 6.32556V6.32557H11.3248V6.32556H9.99142ZM10.1671 5.47349C10.0936 5.61603 10.0606 5.75588 10.0404 5.87584C10.0214 5.98925 10.0083 6.12349 9.99473 6.25923L11.3214 6.3919C11.3368 6.23854 11.3454 6.15597 11.3553 6.09662C11.3642 6.04383 11.3675 6.05497 11.3522 6.08463L10.1671 5.47349ZM10.862 4.84468C10.5619 4.96331 10.315 5.18672 10.1671 5.47349L11.3522 6.08464L11.3522 6.08464L10.862 4.84468ZM11.661 4.7513C11.5246 4.7513 11.3897 4.75096 11.2749 4.75862C11.1536 4.76673 11.0111 4.78572 10.862 4.84468L11.3522 6.08464C11.3211 6.09691 11.3104 6.09256 11.3638 6.08899C11.4238 6.08498 11.5068 6.08464 11.661 6.08464V4.7513ZM12.5036 4.7513H11.661V6.08464H12.5036V4.7513ZM13.3021 4.84457C13.153 4.78568 13.0107 4.76671 12.8894 4.75861C12.7747 4.75096 12.6399 4.7513 12.5036 4.7513V6.08464C12.6576 6.08464 12.7406 6.08498 12.8006 6.08898C12.854 6.09255 12.8432 6.09689 12.8122 6.08464L13.3021 4.84457ZM13.9973 5.47376C13.8494 5.18677 13.6024 4.9632 13.3021 4.84457L12.8122 6.08464L12.8122 6.08464L13.9973 5.47376ZM14.1696 6.2591C14.156 6.12343 14.143 5.98926 14.124 5.87591C14.1038 5.75601 14.0708 5.61624 13.9974 5.47376L12.8122 6.08463C12.7969 6.05497 12.8002 6.04384 12.809 6.09662C12.819 6.15595 12.8276 6.23849 12.8429 6.39177L14.1696 6.2591ZM14.0818 12.0845C14.0818 13.189 13.1864 14.0845 12.0818 14.0845V15.4178C13.9227 15.4178 15.4151 13.9254 15.4151 12.0845H14.0818ZM12.0818 10.0845C13.1864 10.0845 14.0818 10.9799 14.0818 12.0845H15.4151C15.4151 10.2435 13.9227 8.75112 12.0818 8.75112V10.0845ZM10.0818 12.0845C10.0818 10.9799 10.9772 10.0845 12.0818 10.0845V8.75112C10.2408 8.75112 8.74846 10.2435 8.74846 12.0845H10.0818ZM12.0818 14.0845C10.9772 14.0845 10.0818 13.189 10.0818 12.0845H8.74846C8.74846 13.9254 10.2408 15.4178 12.0818 15.4178V14.0845Z" fill="#11468F"/>
</svg>
