<svg width="71" height="70" viewBox="0 0 71 70" fill="none" xmlns="http://www.w3.org/2000/svg">
<rect x="0.5" width="70" height="70" rx="35" fill="#EAF2FD"/>
<path fill-rule="evenodd" clip-rule="evenodd" d="M24.2504 24.5833C24.2504 20.655 24.2504 18.6908 25.4707 17.4704C26.6911 16.25 28.6553 16.25 32.5837 16.25H38.417C42.3454 16.25 44.3096 16.25 45.53 17.4704C46.7504 18.6908 46.7504 20.655 46.7504 24.5833V30.8348H41.1056C40.515 30.8348 39.9521 30.5841 39.5571 30.1452L36.4148 26.6538C35.2296 25.3368 33.541 24.5848 31.7692 24.5848H24.2504V24.5833ZM23.9787 28.7515C22.614 28.7589 21.834 28.803 21.1962 29.0672C20.1752 29.4901 19.3641 30.3012 18.9412 31.3222C18.624 32.0879 18.624 33.0586 18.624 35V47.0833C18.624 49.4169 18.624 50.5837 19.0782 51.475C19.4776 52.259 20.1151 52.8964 20.8991 53.2959C21.7904 53.75 22.9571 53.75 25.2907 53.75H45.7074C48.0409 53.75 49.2077 53.75 50.099 53.2959C50.883 52.8964 51.5204 52.259 51.9199 51.475C52.374 50.5837 52.374 49.4169 52.374 47.0833V41.6667C52.374 39.3331 52.374 38.1663 51.9199 37.275C51.5204 36.491 50.883 35.8536 50.099 35.4541C49.3516 35.0733 48.4106 35.0118 46.7504 35.0019V35.0015H41.1056C39.3338 35.0015 37.6453 34.2495 36.46 32.9325L33.3178 29.4411C32.9227 29.0021 32.3598 28.7515 31.7692 28.7515H23.9787Z" fill="#11468F"/>
</svg>
