<svg width="70" height="70" viewBox="0 0 70 70" fill="none" xmlns="http://www.w3.org/2000/svg">
<rect width="70" height="70" rx="35" fill="#EAF2FD"/>
<path fill-rule="evenodd" clip-rule="evenodd" d="M26.125 26.5C26.125 24.3998 26.125 23.3497 26.5337 22.5475C26.8932 21.8419 27.4669 21.2683 28.1725 20.9087C28.9747 20.5 30.0248 20.5 32.125 20.5H34.5647C35.5977 20.5 36.1142 20.5 36.5929 20.6288C37.0169 20.7429 37.4177 20.9306 37.7768 21.1833C38.1821 21.4685 38.5128 21.8653 39.1741 22.6589L42.0625 26.125H46.375C48.4752 26.125 49.5253 26.125 50.3275 26.5337C51.0331 26.8932 51.6067 27.4669 51.9663 28.1725C52.375 28.9747 52.375 30.0248 52.375 32.125V37C52.375 39.1002 52.375 40.1503 51.9663 40.9525C51.6067 41.6581 51.0331 42.2317 50.3275 42.5913C49.5387 42.9932 48.5102 42.9999 46.4794 43C46.4449 43 46.4101 43 46.375 43H44.875L28 43C26.9645 43 26.125 42.1605 26.125 41.125V28V26.5ZM22.375 28.036C21.6396 28.0809 21.1179 28.1818 20.6725 28.4087C19.9669 28.7682 19.3933 29.3419 19.0337 30.0475C18.625 30.8497 18.625 31.8998 18.625 34V38.5C18.625 42.7004 18.625 44.8006 19.4425 46.4049C20.1615 47.8161 21.3089 48.9635 22.7201 49.6825C24.3244 50.5 26.4246 50.5 30.625 50.5H38.875C40.9752 50.5 42.0253 50.5 42.8275 50.0913C43.5331 49.7317 44.1067 49.1581 44.4663 48.4525C44.6932 48.0071 44.7941 47.4854 44.839 46.75H28C24.8934 46.75 22.375 44.2316 22.375 41.125V28.036Z" fill="#11468F"/>
</svg>
