<svg width="25" height="25" viewBox="0 0 25 25" fill="none" xmlns="http://www.w3.org/2000/svg">
<rect x="0.151515" y="0.151515" width="24.697" height="24.697" rx="12.3485" fill="#E9F7EF"/>
<rect x="0.151515" y="0.151515" width="24.697" height="24.697" rx="12.3485" stroke="#BCE6CE" stroke-width="0.30303"/>
<path d="M13.9538 8.30273H11.6363C10.5887 8.30273 10.0649 8.30273 9.7395 8.62817C9.41406 8.95361 9.41406 9.47739 9.41406 10.525V16.0805C9.41406 17.1281 9.41406 17.6519 9.7395 17.9773C10.0649 18.3027 10.5887 18.3027 11.6363 18.3027H14.9696C16.0172 18.3027 16.541 18.3027 16.8664 17.9773C17.1918 17.6519 17.1918 17.1281 17.1918 16.0805V11.5407C17.1918 11.3137 17.1918 11.2001 17.1496 11.098C17.1073 10.9959 17.027 10.9156 16.8664 10.7551L14.7395 8.62817C14.5789 8.4676 14.4986 8.38731 14.3965 8.34502C14.2945 8.30273 14.1809 8.30273 13.9538 8.30273Z" stroke="#27AE60" stroke-width="1.11111"/>
<path d="M11.6367 13.8594L14.9701 13.8594" stroke="#27AE60" stroke-width="1.11111" stroke-linecap="round"/>
<path d="M11.6367 16.082L13.8589 16.082" stroke="#27AE60" stroke-width="1.11111" stroke-linecap="round"/>
<path d="M13.8594 8.30273V10.525C13.8594 11.0487 13.8594 11.3106 14.0221 11.4733C14.1848 11.6361 14.4467 11.6361 14.9705 11.6361H17.1927" stroke="#27AE60" stroke-width="1.11111"/>
</svg>
